<svg width="490" height="111" viewBox="0 0 490 111" fill="none" xmlns="http://www.w3.org/2000/svg">
<circle cx="55" cy="56" r="55" fill="#008000" fill-opacity="0.1"/>
<path d="M76 71.75L73.5255 69.2755L69 73.801V59.5H65.5V73.801L60.9745 69.2755L58.5 71.75L67.25 80.5L76 71.75Z" fill="#23B123"/>
<path d="M44.5 77V45.5H65.5V54.25H69V38.5C68.9991 37.572 68.63 36.6823 67.9739 36.0261C67.3177 35.37 66.428 35.0009 65.5 35H44.5C43.572 35.0009 42.6823 35.37 42.0261 36.0261C41.37 36.6823 41.0009 37.572 41 38.5V77C41.0009 77.928 41.37 78.8177 42.0261 79.4739C42.6823 80.13 43.572 80.4991 44.5 80.5H55V77H44.5ZM44.5 38.5H65.5V42H44.5V38.5Z" fill="#23B123"/>
<path d="M144.666 18V1.5H149.196C150.369 1.5 151.459 1.71 152.466 2.13C153.473 2.55 154.353 3.13667 155.106 3.89C155.866 4.64333 156.456 5.52 156.876 6.52C157.303 7.52 157.516 8.6 157.516 9.76C157.516 10.9267 157.306 12.01 156.886 13.01C156.466 14.0033 155.876 14.8767 155.116 15.63C154.363 16.3767 153.479 16.96 152.466 17.38C151.459 17.7933 150.369 18 149.196 18H144.666ZM147.906 15.1H148.836C149.583 15.1 150.273 14.9667 150.906 14.7C151.539 14.4333 152.089 14.06 152.556 13.58C153.023 13.1 153.386 12.5367 153.646 11.89C153.906 11.2367 154.036 10.5233 154.036 9.75C154.036 8.98333 153.906 8.27667 153.646 7.63C153.386 6.97667 153.023 6.41 152.556 5.93C152.089 5.44333 151.539 5.06667 150.906 4.8C150.273 4.53333 149.583 4.4 148.836 4.4H147.906V15.1ZM165.439 18.32C164.313 18.32 163.296 18.09 162.389 17.63C161.483 17.1633 160.763 16.5233 160.229 15.71C159.696 14.89 159.429 13.9467 159.429 12.88C159.429 11.8133 159.693 10.8733 160.219 10.06C160.753 9.24 161.473 8.6 162.379 8.14C163.293 7.67333 164.313 7.44 165.439 7.44C166.573 7.44 167.593 7.67333 168.499 8.14C169.406 8.6 170.123 9.24 170.649 10.06C171.183 10.8733 171.449 11.8133 171.449 12.88C171.449 13.9467 171.183 14.89 170.649 15.71C170.123 16.5233 169.406 17.1633 168.499 17.63C167.593 18.09 166.573 18.32 165.439 18.32ZM165.449 15.7C165.969 15.7 166.443 15.58 166.869 15.34C167.296 15.1 167.633 14.77 167.879 14.35C168.126 13.9233 168.249 13.4333 168.249 12.88C168.249 12.3267 168.126 11.84 167.879 11.42C167.633 10.9933 167.296 10.66 166.869 10.42C166.443 10.18 165.969 10.06 165.449 10.06C164.923 10.06 164.446 10.18 164.019 10.42C163.599 10.66 163.266 10.9933 163.019 11.42C162.773 11.84 162.649 12.3267 162.649 12.88C162.649 13.4333 162.773 13.9233 163.019 14.35C163.266 14.77 163.599 15.1 164.019 15.34C164.446 15.58 164.923 15.7 165.449 15.7ZM177.51 18L172.13 7.76H175.64L178.44 13.91L181.08 7.76H183.17L185.81 13.91L188.61 7.76H192.12L186.74 18H184.68L182.12 12.09L179.56 18H177.51ZM193.796 18V7.76H196.866V8.9C197.26 8.46 197.75 8.10667 198.336 7.84C198.93 7.57333 199.583 7.44 200.296 7.44C201.083 7.44 201.773 7.61333 202.366 7.96C202.966 8.3 203.436 8.77667 203.776 9.39C204.116 9.99667 204.286 10.7067 204.286 11.52V18H201.216V12.17C201.216 11.4367 201.023 10.8667 200.636 10.46C200.256 10.0467 199.733 9.84 199.066 9.84C198.613 9.84 198.22 9.93333 197.886 10.12C197.56 10.3 197.306 10.55 197.126 10.87C196.953 11.1833 196.866 11.54 196.866 11.94V18H193.796ZM207.703 18V0.8H210.773V18H207.703ZM219.482 18.32C218.356 18.32 217.339 18.09 216.432 17.63C215.526 17.1633 214.806 16.5233 214.272 15.71C213.739 14.89 213.472 13.9467 213.472 12.88C213.472 11.8133 213.736 10.8733 214.262 10.06C214.796 9.24 215.516 8.6 216.422 8.14C217.336 7.67333 218.356 7.44 219.482 7.44C220.616 7.44 221.636 7.67333 222.542 8.14C223.449 8.6 224.166 9.24 224.692 10.06C225.226 10.8733 225.492 11.8133 225.492 12.88C225.492 13.9467 225.226 14.89 224.692 15.71C224.166 16.5233 223.449 17.1633 222.542 17.63C221.636 18.09 220.616 18.32 219.482 18.32ZM219.492 15.7C220.012 15.7 220.486 15.58 220.912 15.34C221.339 15.1 221.676 14.77 221.922 14.35C222.169 13.9233 222.292 13.4333 222.292 12.88C222.292 12.3267 222.169 11.84 221.922 11.42C221.676 10.9933 221.339 10.66 220.912 10.42C220.486 10.18 220.012 10.06 219.492 10.06C218.966 10.06 218.489 10.18 218.062 10.42C217.642 10.66 217.309 10.9933 217.062 11.42C216.816 11.84 216.692 12.3267 216.692 12.88C216.692 13.4333 216.816 13.9233 217.062 14.35C217.309 14.77 217.642 15.1 218.062 15.34C218.489 15.58 218.966 15.7 219.492 15.7ZM232.383 18.32C231.443 18.32 230.586 18.0867 229.813 17.62C229.046 17.1467 228.436 16.5 227.983 15.68C227.536 14.8533 227.313 13.9133 227.313 12.86C227.313 11.8333 227.529 10.9133 227.963 10.1C228.396 9.28 228.993 8.63333 229.753 8.16C230.519 7.68 231.396 7.44 232.383 7.44C233.109 7.44 233.786 7.58 234.413 7.86C235.046 8.13333 235.563 8.51667 235.963 9.01V7.76H239.033V18H235.963V16.65C235.496 17.19 234.959 17.6033 234.353 17.89C233.746 18.1767 233.089 18.32 232.383 18.32ZM233.293 15.71C233.826 15.71 234.299 15.59 234.713 15.35C235.126 15.1033 235.449 14.7667 235.683 14.34C235.916 13.9133 236.033 13.4267 236.033 12.88C236.033 12.3267 235.913 11.84 235.673 11.42C235.439 10.9933 235.116 10.66 234.703 10.42C234.296 10.1733 233.826 10.05 233.293 10.05C232.766 10.05 232.296 10.1733 231.883 10.42C231.469 10.66 231.143 10.9933 230.903 11.42C230.663 11.8467 230.543 12.3333 230.543 12.88C230.543 13.4267 230.659 13.9133 230.893 14.34C231.133 14.7667 231.459 15.1033 231.873 15.35C232.286 15.59 232.759 15.71 233.293 15.71ZM246.884 18.32C245.957 18.32 245.111 18.09 244.344 17.63C243.584 17.1633 242.977 16.52 242.524 15.7C242.071 14.88 241.844 13.94 241.844 12.88C241.844 11.84 242.064 10.9133 242.504 10.1C242.944 9.28 243.547 8.63333 244.314 8.16C245.087 7.68 245.971 7.44 246.964 7.44C247.684 7.44 248.351 7.58 248.964 7.86C249.577 8.13333 250.087 8.51667 250.494 9.01V0.8H253.564V18H250.494V16.65C250.041 17.1767 249.504 17.5867 248.884 17.88C248.264 18.1733 247.597 18.32 246.884 18.32ZM247.804 15.71C248.344 15.71 248.821 15.59 249.234 15.35C249.647 15.1033 249.971 14.7667 250.204 14.34C250.444 13.9133 250.564 13.43 250.564 12.89C250.564 12.3433 250.444 11.8567 250.204 11.43C249.971 11.0033 249.647 10.6667 249.234 10.42C248.821 10.1733 248.347 10.05 247.814 10.05C247.287 10.05 246.817 10.1733 246.404 10.42C245.997 10.6667 245.674 11.0067 245.434 11.44C245.194 11.8667 245.074 12.3533 245.074 12.9C245.074 13.44 245.191 13.9233 245.424 14.35C245.657 14.77 245.981 15.1033 246.394 15.35C246.807 15.59 247.277 15.71 247.804 15.71ZM263.006 18V1.5H272.276V4.34H265.466L266.246 3.63V9.21L265.466 8.31H271.826V11.15H265.466L266.246 10.25V18H263.006ZM278.73 18.32C277.79 18.32 276.934 18.0867 276.16 17.62C275.394 17.1467 274.784 16.5 274.33 15.68C273.884 14.8533 273.66 13.9133 273.66 12.86C273.66 11.8333 273.877 10.9133 274.31 10.1C274.744 9.28 275.34 8.63333 276.1 8.16C276.867 7.68 277.744 7.44 278.73 7.44C279.457 7.44 280.134 7.58 280.76 7.86C281.394 8.13333 281.91 8.51667 282.31 9.01V7.76H285.38V18H282.31V16.65C281.844 17.19 281.307 17.6033 280.7 17.89C280.094 18.1767 279.437 18.32 278.73 18.32ZM279.64 15.71C280.174 15.71 280.647 15.59 281.06 15.35C281.474 15.1033 281.797 14.7667 282.03 14.34C282.264 13.9133 282.38 13.4267 282.38 12.88C282.38 12.3267 282.26 11.84 282.02 11.42C281.787 10.9933 281.464 10.66 281.05 10.42C280.644 10.1733 280.174 10.05 279.64 10.05C279.114 10.05 278.644 10.1733 278.23 10.42C277.817 10.66 277.49 10.9933 277.25 11.42C277.01 11.8467 276.89 12.3333 276.89 12.88C276.89 13.4267 277.007 13.9133 277.24 14.34C277.48 14.7667 277.807 15.1033 278.22 15.35C278.634 15.59 279.107 15.71 279.64 15.71ZM288.992 18V7.76H292.062V9.23C292.442 8.65667 292.905 8.21667 293.452 7.91C294.005 7.59667 294.598 7.44 295.232 7.44C295.592 7.44 295.965 7.49333 296.352 7.6C296.738 7.70667 297.062 7.84333 297.322 8.01L296.042 10.6C295.815 10.4467 295.548 10.3267 295.242 10.24C294.942 10.1467 294.662 10.1 294.402 10.1C294.002 10.1 293.622 10.2033 293.262 10.41C292.902 10.6167 292.612 10.8867 292.392 11.22C292.172 11.5467 292.062 11.9 292.062 12.28V18H288.992ZM299.031 18V7.76H302.101V8.9C302.607 8.39333 303.111 8.02333 303.611 7.79C304.111 7.55667 304.651 7.44 305.231 7.44C306.017 7.44 306.727 7.61667 307.361 7.97C307.994 8.32333 308.447 8.79667 308.721 9.39C309.221 8.74333 309.757 8.25667 310.331 7.93C310.904 7.60333 311.561 7.44 312.301 7.44C313.041 7.44 313.697 7.59333 314.271 7.9C314.844 8.20667 315.294 8.64333 315.621 9.21C315.954 9.77 316.121 10.4333 316.121 11.2V18H313.051V12.04C313.051 11.3733 312.877 10.85 312.531 10.47C312.184 10.0833 311.721 9.89 311.141 9.89C310.741 9.89 310.387 9.97333 310.081 10.14C309.781 10.3067 309.544 10.53 309.371 10.81C309.197 11.09 309.111 11.4 309.111 11.74V18H306.041V11.98C306.041 11.3467 305.871 10.84 305.531 10.46C305.197 10.08 304.734 9.89 304.141 9.89C303.747 9.89 303.394 9.97333 303.081 10.14C302.774 10.3067 302.534 10.5333 302.361 10.82C302.187 11.1067 302.101 11.4233 302.101 11.77V18H299.031ZM324.858 18L317.938 1.5H321.598L326.128 13.13L330.668 1.5H334.318L327.398 18H324.858ZM339.81 18.32C338.703 18.32 337.71 18.0833 336.83 17.61C335.957 17.13 335.263 16.48 334.75 15.66C334.237 14.84 333.98 13.9133 333.98 12.88C333.98 12.12 334.123 11.41 334.41 10.75C334.703 10.09 335.11 9.51333 335.63 9.02C336.15 8.52 336.753 8.13333 337.44 7.86C338.127 7.58 338.87 7.44 339.67 7.44C340.737 7.44 341.67 7.66333 342.47 8.11C343.277 8.55 343.903 9.16333 344.35 9.95C344.803 10.7367 345.03 11.6533 345.03 12.7C345.03 12.7867 345.027 12.8633 345.02 12.93C345.02 12.99 345.01 13.1067 344.99 13.28H337.14C337.14 13.8 337.257 14.2533 337.49 14.64C337.73 15.0267 338.063 15.33 338.49 15.55C338.917 15.7633 339.413 15.87 339.98 15.87C340.513 15.87 340.983 15.7667 341.39 15.56C341.803 15.3533 342.2 15.0233 342.58 14.57L344.79 15.68C344.31 16.5067 343.63 17.1533 342.75 17.62C341.87 18.0867 340.89 18.32 339.81 18.32ZM337.25 11.58H342.01C341.943 11.1867 341.8 10.8467 341.58 10.56C341.367 10.2733 341.093 10.0533 340.76 9.9C340.427 9.74667 340.05 9.67 339.63 9.67C339.183 9.67 338.79 9.74667 338.45 9.9C338.11 10.0533 337.837 10.2733 337.63 10.56C337.423 10.8467 337.297 11.1867 337.25 11.58ZM350.622 18.32C349.755 18.32 348.979 18.1833 348.292 17.91C347.612 17.6367 347.045 17.2367 346.592 16.71L347.882 14.65C348.309 15.1033 348.755 15.45 349.222 15.69C349.689 15.93 350.155 16.05 350.622 16.05C350.882 16.05 351.105 16.0067 351.292 15.92C351.485 15.8333 351.635 15.71 351.742 15.55C351.855 15.3833 351.912 15.1833 351.912 14.95C351.912 14.6833 351.835 14.4733 351.682 14.32C351.535 14.1667 351.309 14.0267 351.002 13.9C350.695 13.7667 350.299 13.6 349.812 13.4C349.399 13.2267 349.002 13.03 348.622 12.81C348.242 12.59 347.932 12.31 347.692 11.97C347.459 11.63 347.342 11.2 347.342 10.68C347.342 10.0467 347.519 9.49 347.872 9.01C348.225 8.52333 348.712 8.14333 349.332 7.87C349.959 7.59667 350.679 7.46 351.492 7.46C351.999 7.46 352.529 7.53667 353.082 7.69C353.642 7.84333 354.239 8.07667 354.872 8.39L353.822 10.36C352.962 9.80667 352.192 9.53 351.512 9.53C351.132 9.53 350.829 9.61333 350.602 9.78C350.375 9.94667 350.262 10.1567 350.262 10.41C350.262 10.65 350.379 10.86 350.612 11.04C350.852 11.2133 351.142 11.37 351.482 11.51C351.829 11.6433 352.159 11.7667 352.472 11.88C352.985 12.0667 353.439 12.2733 353.832 12.5C354.232 12.7267 354.545 13.0233 354.772 13.39C354.999 13.75 355.112 14.2333 355.112 14.84C355.112 15.58 354.932 16.21 354.572 16.73C354.219 17.2433 353.705 17.6367 353.032 17.91C352.365 18.1833 351.562 18.32 350.622 18.32ZM361.311 18.32C360.291 18.32 359.497 17.9967 358.931 17.35C358.364 16.6967 358.081 15.7867 358.081 14.62V10.09H356.711V7.76H358.081V3.92H361.151V7.76H363.401V10.09H361.151V14.4C361.151 14.7867 361.227 15.08 361.381 15.28C361.541 15.48 361.764 15.58 362.051 15.58C362.371 15.58 362.677 15.4733 362.971 15.26L363.741 17.72C363.394 17.9067 363.004 18.0533 362.571 18.16C362.144 18.2667 361.724 18.32 361.311 18.32Z" fill="white"/>
<path d="M148.129 60.288C147.361 60.288 146.686 60.174 146.104 59.946C145.522 59.712 145.027 59.433 144.619 59.109C144.217 58.779 143.893 58.458 143.647 58.146C143.407 57.834 143.239 57.6 143.143 57.444L143.926 56.436C144.034 56.604 144.196 56.832 144.412 57.12C144.634 57.402 144.916 57.69 145.258 57.984C145.6 58.272 146.011 58.518 146.491 58.722C146.971 58.92 147.526 59.019 148.156 59.019C148.756 59.019 149.302 58.911 149.794 58.695C150.292 58.479 150.691 58.158 150.991 57.732C151.291 57.306 151.441 56.778 151.441 56.148C151.441 55.62 151.336 55.173 151.126 54.807C150.922 54.435 150.637 54.12 150.271 53.862C149.905 53.604 149.485 53.376 149.011 53.178C148.543 52.974 148.051 52.776 147.535 52.584C147.175 52.446 146.797 52.284 146.401 52.098C146.011 51.906 145.645 51.669 145.303 51.387C144.961 51.099 144.682 50.751 144.466 50.343C144.256 49.935 144.151 49.443 144.151 48.867C144.151 48.327 144.253 47.817 144.457 47.337C144.661 46.857 144.946 46.434 145.312 46.068C145.678 45.696 146.116 45.405 146.626 45.195C147.136 44.985 147.7 44.88 148.318 44.88C148.912 44.88 149.458 44.979 149.956 45.177C150.454 45.369 150.889 45.615 151.261 45.915C151.639 46.209 151.93 46.515 152.134 46.833L151.432 47.778C151.264 47.502 151.03 47.238 150.73 46.986C150.43 46.734 150.076 46.53 149.668 46.374C149.266 46.212 148.819 46.131 148.327 46.131C147.715 46.131 147.193 46.263 146.761 46.527C146.335 46.791 146.011 47.133 145.789 47.553C145.567 47.967 145.456 48.405 145.456 48.867C145.456 49.287 145.543 49.644 145.717 49.938C145.891 50.232 146.122 50.481 146.41 50.685C146.698 50.883 147.013 51.054 147.355 51.198C147.703 51.342 148.051 51.477 148.399 51.603C148.981 51.819 149.539 52.05 150.073 52.296C150.613 52.536 151.093 52.824 151.513 53.16C151.933 53.49 152.266 53.895 152.512 54.375C152.758 54.849 152.881 55.425 152.881 56.103C152.881 56.991 152.671 57.747 152.251 58.371C151.831 58.995 151.264 59.472 150.55 59.802C149.836 60.126 149.029 60.288 148.129 60.288ZM158.535 60.288C157.845 60.288 157.308 60.057 156.924 59.595C156.546 59.127 156.357 58.47 156.357 57.624V51.774H155.421V50.784H156.357V47.337H157.671V50.784H159.966V51.774H157.671V57.552C157.671 58.062 157.77 58.452 157.968 58.722C158.166 58.992 158.448 59.127 158.814 59.127C159.168 59.127 159.48 59.028 159.75 58.83L160.083 59.874C159.879 60 159.639 60.099 159.363 60.171C159.087 60.249 158.811 60.288 158.535 60.288ZM166.852 60.288C165.988 60.288 165.208 60.078 164.512 59.658C163.822 59.232 163.273 58.65 162.865 57.912C162.463 57.174 162.262 56.331 162.262 55.383C162.262 54.447 162.46 53.613 162.856 52.881C163.258 52.143 163.804 51.561 164.494 51.135C165.19 50.709 165.976 50.496 166.852 50.496C167.686 50.496 168.442 50.691 169.12 51.081C169.798 51.471 170.314 52.011 170.668 52.701V50.784H171.982V60H170.668V58.056C170.272 58.752 169.741 59.298 169.075 59.694C168.409 60.09 167.668 60.288 166.852 60.288ZM167.176 59.145C167.866 59.145 168.475 58.986 169.003 58.668C169.537 58.344 169.957 57.9 170.263 57.336C170.569 56.766 170.722 56.118 170.722 55.392C170.722 54.66 170.569 54.012 170.263 53.448C169.963 52.884 169.546 52.443 169.012 52.125C168.478 51.801 167.866 51.639 167.176 51.639C166.486 51.639 165.874 51.801 165.34 52.125C164.806 52.443 164.386 52.884 164.08 53.448C163.774 54.012 163.621 54.66 163.621 55.392C163.621 56.118 163.774 56.766 164.08 57.336C164.386 57.9 164.806 58.344 165.34 58.668C165.874 58.986 166.486 59.145 167.176 59.145ZM175.857 60V50.784H177.171V52.143C177.465 51.603 177.843 51.195 178.305 50.919C178.773 50.637 179.313 50.496 179.925 50.496C180.195 50.496 180.468 50.526 180.744 50.586C181.026 50.646 181.269 50.724 181.473 50.82L180.933 51.927C180.753 51.837 180.546 51.768 180.312 51.72C180.084 51.672 179.865 51.648 179.655 51.648C179.229 51.648 178.827 51.756 178.449 51.972C178.071 52.188 177.762 52.47 177.522 52.818C177.288 53.16 177.171 53.526 177.171 53.916V60H175.857ZM186.185 60.288C185.495 60.288 184.958 60.057 184.574 59.595C184.196 59.127 184.007 58.47 184.007 57.624V51.774H183.071V50.784H184.007V47.337H185.321V50.784H187.616V51.774H185.321V57.552C185.321 58.062 185.42 58.452 185.618 58.722C185.816 58.992 186.098 59.127 186.464 59.127C186.818 59.127 187.13 59.028 187.4 58.83L187.733 59.874C187.529 60 187.289 60.099 187.013 60.171C186.737 60.249 186.461 60.288 186.185 60.288ZM200.367 60.288C199.551 60.288 198.807 60.09 198.135 59.694C197.463 59.298 196.932 58.752 196.542 58.056V60H195.228V44.52H196.542V52.701C196.92 52.011 197.442 51.471 198.108 51.081C198.774 50.691 199.518 50.496 200.34 50.496C201.222 50.496 202.011 50.709 202.707 51.135C203.403 51.561 203.949 52.143 204.345 52.881C204.747 53.613 204.948 54.45 204.948 55.392C204.948 56.34 204.744 57.183 204.336 57.921C203.934 58.659 203.388 59.238 202.698 59.658C202.008 60.078 201.231 60.288 200.367 60.288ZM200.043 59.145C200.733 59.145 201.345 58.986 201.879 58.668C202.413 58.344 202.83 57.9 203.13 57.336C203.436 56.766 203.589 56.121 203.589 55.401C203.589 54.669 203.436 54.021 203.13 53.457C202.824 52.887 202.404 52.443 201.87 52.125C201.342 51.801 200.733 51.639 200.043 51.639C199.353 51.639 198.741 51.801 198.207 52.125C197.673 52.443 197.253 52.887 196.947 53.457C196.641 54.021 196.488 54.669 196.488 55.401C196.488 56.121 196.638 56.766 196.938 57.336C197.244 57.9 197.664 58.344 198.198 58.668C198.738 58.986 199.353 59.145 200.043 59.145ZM208.912 64.68L211.18 59.775L206.797 50.784H208.282L211.927 58.425L215.239 50.784H216.724L210.397 64.68H208.912ZM227.813 60.288C226.949 60.288 226.169 60.078 225.473 59.658C224.783 59.238 224.234 58.659 223.826 57.921C223.424 57.183 223.223 56.34 223.223 55.392C223.223 54.45 223.424 53.613 223.826 52.881C224.228 52.143 224.774 51.561 225.464 51.135C226.16 50.709 226.949 50.496 227.831 50.496C228.653 50.496 229.397 50.691 230.063 51.081C230.729 51.471 231.251 52.011 231.629 52.701V44.511H232.943V60H231.629V58.056C231.239 58.752 230.708 59.298 230.036 59.694C229.37 60.09 228.629 60.288 227.813 60.288ZM228.128 59.145C228.818 59.145 229.43 58.986 229.964 58.668C230.498 58.344 230.918 57.9 231.224 57.336C231.53 56.766 231.683 56.121 231.683 55.401C231.683 54.669 231.53 54.021 231.224 53.457C230.924 52.887 230.504 52.443 229.964 52.125C229.43 51.801 228.818 51.639 228.128 51.639C227.444 51.639 226.835 51.801 226.301 52.125C225.767 52.443 225.347 52.887 225.041 53.457C224.735 54.021 224.582 54.669 224.582 55.401C224.582 56.127 224.732 56.772 225.032 57.336C225.338 57.9 225.758 58.344 226.292 58.668C226.832 58.986 227.444 59.145 228.128 59.145ZM241.219 60.288C240.259 60.288 239.392 60.081 238.618 59.667C237.85 59.253 237.241 58.677 236.791 57.939C236.341 57.201 236.116 56.352 236.116 55.392C236.116 54.426 236.341 53.577 236.791 52.845C237.241 52.107 237.85 51.531 238.618 51.117C239.386 50.703 240.253 50.496 241.219 50.496C242.179 50.496 243.043 50.703 243.811 51.117C244.585 51.531 245.197 52.107 245.647 52.845C246.097 53.577 246.322 54.426 246.322 55.392C246.322 56.352 246.097 57.201 245.647 57.939C245.197 58.677 244.585 59.253 243.811 59.667C243.043 60.081 242.179 60.288 241.219 60.288ZM241.219 59.118C241.939 59.118 242.581 58.959 243.145 58.641C243.709 58.323 244.153 57.885 244.477 57.327C244.801 56.763 244.963 56.118 244.963 55.392C244.963 54.666 244.801 54.024 244.477 53.466C244.153 52.902 243.709 52.461 243.145 52.143C242.581 51.825 241.939 51.666 241.219 51.666C240.499 51.666 239.857 51.825 239.293 52.143C238.729 52.461 238.285 52.902 237.961 53.466C237.637 54.024 237.475 54.666 237.475 55.392C237.475 56.112 237.637 56.754 237.961 57.318C238.285 57.882 238.729 58.323 239.293 58.641C239.857 58.959 240.499 59.118 241.219 59.118ZM252.518 60L248.045 50.784H249.548L252.923 58.11L255.83 50.784H256.712L259.619 58.11L262.994 50.784H264.497L260.024 60H259.151L256.271 52.827L253.382 60H252.518ZM266.999 60V50.784H268.313V52.044C268.565 51.612 268.955 51.246 269.483 50.946C270.011 50.646 270.656 50.496 271.418 50.496C272.132 50.496 272.747 50.643 273.263 50.937C273.779 51.231 274.175 51.66 274.451 52.224C274.727 52.782 274.865 53.457 274.865 54.249V60H273.551V54.501C273.551 53.547 273.329 52.821 272.885 52.323C272.441 51.819 271.814 51.567 271.004 51.567C270.44 51.567 269.957 51.681 269.555 51.909C269.159 52.131 268.853 52.428 268.637 52.8C268.421 53.166 268.313 53.565 268.313 53.997V60H266.999ZM278.566 60V44.52H279.88V60H278.566ZM288.152 60.288C287.192 60.288 286.325 60.081 285.551 59.667C284.783 59.253 284.174 58.677 283.724 57.939C283.274 57.201 283.049 56.352 283.049 55.392C283.049 54.426 283.274 53.577 283.724 52.845C284.174 52.107 284.783 51.531 285.551 51.117C286.319 50.703 287.186 50.496 288.152 50.496C289.112 50.496 289.976 50.703 290.744 51.117C291.518 51.531 292.13 52.107 292.58 52.845C293.03 53.577 293.255 54.426 293.255 55.392C293.255 56.352 293.03 57.201 292.58 57.939C292.13 58.677 291.518 59.253 290.744 59.667C289.976 60.081 289.112 60.288 288.152 60.288ZM288.152 59.118C288.872 59.118 289.514 58.959 290.078 58.641C290.642 58.323 291.086 57.885 291.41 57.327C291.734 56.763 291.896 56.118 291.896 55.392C291.896 54.666 291.734 54.024 291.41 53.466C291.086 52.902 290.642 52.461 290.078 52.143C289.514 51.825 288.872 51.666 288.152 51.666C287.432 51.666 286.79 51.825 286.226 52.143C285.662 52.461 285.218 52.902 284.894 53.466C284.57 54.024 284.408 54.666 284.408 55.392C284.408 56.112 284.57 56.754 284.894 57.318C285.218 57.882 285.662 58.323 286.226 58.641C286.79 58.959 287.432 59.118 288.152 59.118ZM300.27 60.288C299.406 60.288 298.626 60.078 297.93 59.658C297.24 59.232 296.691 58.65 296.283 57.912C295.881 57.174 295.68 56.331 295.68 55.383C295.68 54.447 295.878 53.613 296.274 52.881C296.676 52.143 297.222 51.561 297.912 51.135C298.608 50.709 299.394 50.496 300.27 50.496C301.104 50.496 301.86 50.691 302.538 51.081C303.216 51.471 303.732 52.011 304.086 52.701V50.784H305.4V60H304.086V58.056C303.69 58.752 303.159 59.298 302.493 59.694C301.827 60.09 301.086 60.288 300.27 60.288ZM300.594 59.145C301.284 59.145 301.893 58.986 302.421 58.668C302.955 58.344 303.375 57.9 303.681 57.336C303.987 56.766 304.14 56.118 304.14 55.392C304.14 54.66 303.987 54.012 303.681 53.448C303.381 52.884 302.964 52.443 302.43 52.125C301.896 51.801 301.284 51.639 300.594 51.639C299.904 51.639 299.292 51.801 298.758 52.125C298.224 52.443 297.804 52.884 297.498 53.448C297.192 54.012 297.039 54.66 297.039 55.392C297.039 56.118 297.192 56.766 297.498 57.336C297.804 57.9 298.224 58.344 298.758 58.668C299.292 58.986 299.904 59.145 300.594 59.145ZM313.208 60.288C312.344 60.288 311.564 60.078 310.868 59.658C310.178 59.238 309.629 58.659 309.221 57.921C308.819 57.183 308.618 56.34 308.618 55.392C308.618 54.45 308.819 53.613 309.221 52.881C309.623 52.143 310.169 51.561 310.859 51.135C311.555 50.709 312.344 50.496 313.226 50.496C314.048 50.496 314.792 50.691 315.458 51.081C316.124 51.471 316.646 52.011 317.024 52.701V44.511H318.338V60H317.024V58.056C316.634 58.752 316.103 59.298 315.431 59.694C314.765 60.09 314.024 60.288 313.208 60.288ZM313.523 59.145C314.213 59.145 314.825 58.986 315.359 58.668C315.893 58.344 316.313 57.9 316.619 57.336C316.925 56.766 317.078 56.121 317.078 55.401C317.078 54.669 316.925 54.021 316.619 53.457C316.319 52.887 315.899 52.443 315.359 52.125C314.825 51.801 314.213 51.639 313.523 51.639C312.839 51.639 312.23 51.801 311.696 52.125C311.162 52.443 310.742 52.887 310.436 53.457C310.13 54.021 309.977 54.669 309.977 55.401C309.977 56.127 310.127 56.772 310.427 57.336C310.733 57.9 311.153 58.344 311.687 58.668C312.227 58.986 312.839 59.145 313.523 59.145ZM322.203 60V50.784H323.517V60H322.203ZM322.869 48.939C322.707 48.939 322.56 48.9 322.428 48.822C322.302 48.744 322.2 48.639 322.122 48.507C322.044 48.375 322.005 48.231 322.005 48.075C322.005 47.919 322.044 47.778 322.122 47.652C322.2 47.52 322.302 47.415 322.428 47.337C322.56 47.259 322.707 47.22 322.869 47.22C323.025 47.22 323.166 47.259 323.292 47.337C323.418 47.415 323.52 47.517 323.598 47.643C323.682 47.769 323.724 47.913 323.724 48.075C323.724 48.231 323.682 48.375 323.598 48.507C323.52 48.639 323.418 48.744 323.292 48.822C323.166 48.9 323.025 48.939 322.869 48.939ZM327.398 60V50.784H328.712V52.044C328.964 51.612 329.354 51.246 329.882 50.946C330.41 50.646 331.055 50.496 331.817 50.496C332.531 50.496 333.146 50.643 333.662 50.937C334.178 51.231 334.574 51.66 334.85 52.224C335.126 52.782 335.264 53.457 335.264 54.249V60H333.95V54.501C333.95 53.547 333.728 52.821 333.284 52.323C332.84 51.819 332.213 51.567 331.403 51.567C330.839 51.567 330.356 51.681 329.954 51.909C329.558 52.131 329.252 52.428 329.036 52.8C328.82 53.166 328.712 53.565 328.712 53.997V60H327.398ZM343.032 64.95C341.868 64.95 340.884 64.722 340.08 64.266C339.276 63.81 338.679 63.144 338.289 62.268L339.396 61.755C339.678 62.391 340.146 62.895 340.8 63.267C341.454 63.645 342.198 63.834 343.032 63.834C343.734 63.834 344.361 63.693 344.913 63.411C345.471 63.135 345.909 62.733 346.227 62.205C346.551 61.677 346.713 61.044 346.713 60.306V58.056C346.329 58.752 345.801 59.298 345.129 59.694C344.463 60.09 343.719 60.288 342.897 60.288C342.039 60.288 341.262 60.078 340.566 59.658C339.876 59.238 339.327 58.659 338.919 57.921C338.517 57.183 338.316 56.34 338.316 55.392C338.316 54.45 338.517 53.613 338.919 52.881C339.321 52.143 339.867 51.561 340.557 51.135C341.253 50.709 342.042 50.496 342.924 50.496C343.74 50.496 344.481 50.691 345.147 51.081C345.819 51.471 346.341 52.011 346.713 52.701V50.784H348.027V60.252C348.027 61.272 347.826 62.13 347.424 62.826C347.022 63.528 346.446 64.056 345.696 64.41C344.952 64.77 344.064 64.95 343.032 64.95ZM343.212 59.145C343.908 59.145 344.523 58.986 345.057 58.668C345.591 58.344 346.011 57.9 346.317 57.336C346.623 56.766 346.776 56.121 346.776 55.401C346.776 54.669 346.623 54.021 346.317 53.457C346.011 52.887 345.591 52.443 345.057 52.125C344.523 51.801 343.911 51.639 343.221 51.639C342.531 51.639 341.919 51.801 341.385 52.125C340.851 52.443 340.431 52.887 340.125 53.457C339.819 54.021 339.666 54.669 339.666 55.401C339.666 56.121 339.816 56.766 340.116 57.336C340.422 57.9 340.842 58.344 341.376 58.668C341.916 58.986 342.528 59.145 343.212 59.145ZM357.011 60V45.15H364.526V46.356H357.839L358.379 45.951V52.764L357.839 51.954H364.112V53.16H357.839L358.379 52.35V60H357.011ZM371.075 60.288C370.211 60.288 369.431 60.078 368.735 59.658C368.045 59.232 367.496 58.65 367.088 57.912C366.686 57.174 366.485 56.331 366.485 55.383C366.485 54.447 366.683 53.613 367.079 52.881C367.481 52.143 368.027 51.561 368.717 51.135C369.413 50.709 370.199 50.496 371.075 50.496C371.909 50.496 372.665 50.691 373.343 51.081C374.021 51.471 374.537 52.011 374.891 52.701V50.784H376.205V60H374.891V58.056C374.495 58.752 373.964 59.298 373.298 59.694C372.632 60.09 371.891 60.288 371.075 60.288ZM371.399 59.145C372.089 59.145 372.698 58.986 373.226 58.668C373.76 58.344 374.18 57.9 374.486 57.336C374.792 56.766 374.945 56.118 374.945 55.392C374.945 54.66 374.792 54.012 374.486 53.448C374.186 52.884 373.769 52.443 373.235 52.125C372.701 51.801 372.089 51.639 371.399 51.639C370.709 51.639 370.097 51.801 369.563 52.125C369.029 52.443 368.609 52.884 368.303 53.448C367.997 54.012 367.844 54.66 367.844 55.392C367.844 56.118 367.997 56.766 368.303 57.336C368.609 57.9 369.029 58.344 369.563 58.668C370.097 58.986 370.709 59.145 371.399 59.145ZM380.08 60V50.784H381.394V52.143C381.688 51.603 382.066 51.195 382.528 50.919C382.996 50.637 383.536 50.496 384.148 50.496C384.418 50.496 384.691 50.526 384.967 50.586C385.249 50.646 385.492 50.724 385.696 50.82L385.156 51.927C384.976 51.837 384.769 51.768 384.535 51.72C384.307 51.672 384.088 51.648 383.878 51.648C383.452 51.648 383.05 51.756 382.672 51.972C382.294 52.188 381.985 52.47 381.745 52.818C381.511 53.16 381.394 53.526 381.394 53.916V60H380.08ZM388.113 60V50.784H389.427V52.044C389.793 51.534 390.231 51.15 390.741 50.892C391.251 50.628 391.821 50.496 392.451 50.496C393.207 50.496 393.864 50.67 394.422 51.018C394.986 51.366 395.376 51.84 395.592 52.44C395.946 51.852 396.396 51.381 396.942 51.027C397.494 50.673 398.148 50.496 398.904 50.496C399.558 50.496 400.14 50.631 400.65 50.901C401.16 51.165 401.559 51.555 401.847 52.071C402.141 52.581 402.288 53.205 402.288 53.943V60H400.974V54.312C400.974 53.472 400.755 52.806 400.317 52.314C399.879 51.822 399.294 51.576 398.562 51.576C398.058 51.576 397.602 51.687 397.194 51.909C396.786 52.131 396.462 52.419 396.222 52.773C395.982 53.121 395.862 53.481 395.862 53.853V60H394.548V54.177C394.548 53.379 394.329 52.746 393.891 52.278C393.459 51.81 392.886 51.576 392.172 51.576C391.668 51.576 391.206 51.684 390.786 51.9C390.372 52.11 390.042 52.383 389.796 52.719C389.55 53.055 389.427 53.4 389.427 53.754V60H388.113ZM411.263 60L405.035 45.15H406.583L411.803 57.939L417.014 45.15H418.562L412.334 60H411.263ZM424.513 60.288C423.547 60.288 422.683 60.075 421.921 59.649C421.165 59.223 420.571 58.644 420.139 57.912C419.707 57.174 419.491 56.346 419.491 55.428C419.491 54.738 419.614 54.096 419.86 53.502C420.112 52.902 420.46 52.377 420.904 51.927C421.348 51.477 421.864 51.126 422.452 50.874C423.04 50.622 423.667 50.496 424.333 50.496C425.245 50.496 426.055 50.697 426.763 51.099C427.477 51.495 428.041 52.044 428.455 52.746C428.875 53.448 429.097 54.258 429.121 55.176C429.121 55.248 429.118 55.308 429.112 55.356C429.112 55.398 429.106 55.452 429.094 55.518H420.796C420.796 56.238 420.958 56.874 421.282 57.426C421.606 57.978 422.05 58.413 422.614 58.731C423.184 59.043 423.835 59.199 424.567 59.199C425.263 59.199 425.887 59.055 426.439 58.767C426.997 58.473 427.462 58.053 427.834 57.507L428.806 58.029C428.368 58.743 427.771 59.298 427.015 59.694C426.265 60.09 425.431 60.288 424.513 60.288ZM420.868 54.528H427.807C427.729 53.952 427.528 53.445 427.204 53.007C426.88 52.563 426.469 52.215 425.971 51.963C425.479 51.711 424.939 51.585 424.351 51.585C423.745 51.585 423.193 51.711 422.695 51.963C422.197 52.209 421.786 52.554 421.462 52.998C421.144 53.436 420.946 53.946 420.868 54.528ZM434.54 60.288C433.778 60.288 433.106 60.105 432.524 59.739C431.942 59.367 431.489 58.842 431.165 58.164L431.867 57.408C432.155 57.996 432.53 58.455 432.992 58.785C433.454 59.109 433.967 59.271 434.531 59.271C434.909 59.271 435.254 59.193 435.566 59.037C435.884 58.881 436.136 58.659 436.322 58.371C436.514 58.077 436.61 57.729 436.61 57.327C436.61 56.961 436.52 56.673 436.34 56.463C436.166 56.253 435.908 56.073 435.566 55.923C435.23 55.767 434.81 55.593 434.306 55.401C433.916 55.245 433.538 55.068 433.172 54.87C432.806 54.672 432.503 54.423 432.263 54.123C432.029 53.817 431.912 53.43 431.912 52.962C431.912 52.488 432.038 52.068 432.29 51.702C432.542 51.33 432.89 51.039 433.334 50.829C433.778 50.613 434.282 50.505 434.846 50.505C435.362 50.505 435.845 50.616 436.295 50.838C436.751 51.06 437.159 51.375 437.519 51.783L436.916 52.548C436.364 51.822 435.677 51.459 434.855 51.459C434.351 51.459 433.94 51.591 433.622 51.855C433.31 52.119 433.154 52.464 433.154 52.89C433.154 53.196 433.253 53.451 433.451 53.655C433.649 53.859 433.907 54.033 434.225 54.177C434.549 54.321 434.897 54.465 435.269 54.609C435.809 54.813 436.277 55.017 436.673 55.221C437.075 55.425 437.387 55.686 437.609 56.004C437.831 56.316 437.942 56.742 437.942 57.282C437.942 57.9 437.798 58.434 437.51 58.884C437.222 59.334 436.82 59.682 436.304 59.928C435.794 60.168 435.206 60.288 434.54 60.288ZM443.195 60.288C442.505 60.288 441.968 60.057 441.584 59.595C441.206 59.127 441.017 58.47 441.017 57.624V51.774H440.081V50.784H441.017V47.337H442.331V50.784H444.626V51.774H442.331V57.552C442.331 58.062 442.43 58.452 442.628 58.722C442.826 58.992 443.108 59.127 443.474 59.127C443.828 59.127 444.14 59.028 444.41 58.83L444.743 59.874C444.539 60 444.299 60.099 444.023 60.171C443.747 60.249 443.471 60.288 443.195 60.288ZM456.171 60.288C455.307 60.288 454.527 60.078 453.831 59.658C453.141 59.232 452.592 58.65 452.184 57.912C451.782 57.174 451.581 56.331 451.581 55.383C451.581 54.447 451.779 53.613 452.175 52.881C452.577 52.143 453.123 51.561 453.813 51.135C454.509 50.709 455.295 50.496 456.171 50.496C457.005 50.496 457.761 50.691 458.439 51.081C459.117 51.471 459.633 52.011 459.987 52.701V50.784H461.301V60H459.987V58.056C459.591 58.752 459.06 59.298 458.394 59.694C457.728 60.09 456.987 60.288 456.171 60.288ZM456.495 59.145C457.185 59.145 457.794 58.986 458.322 58.668C458.856 58.344 459.276 57.9 459.582 57.336C459.888 56.766 460.041 56.118 460.041 55.392C460.041 54.66 459.888 54.012 459.582 53.448C459.282 52.884 458.865 52.443 458.331 52.125C457.797 51.801 457.185 51.639 456.495 51.639C455.805 51.639 455.193 51.801 454.659 52.125C454.125 52.443 453.705 52.884 453.399 53.448C453.093 54.012 452.94 54.66 452.94 55.392C452.94 56.118 453.093 56.766 453.399 57.336C453.705 57.9 454.125 58.344 454.659 58.668C455.193 58.986 455.805 59.145 456.495 59.145ZM465.175 64.68V50.784H466.489V52.692C466.861 52.002 467.38 51.465 468.046 51.081C468.718 50.691 469.462 50.496 470.278 50.496C471.16 50.496 471.949 50.709 472.645 51.135C473.341 51.561 473.89 52.143 474.292 52.881C474.694 53.613 474.895 54.45 474.895 55.392C474.895 56.322 474.694 57.159 474.292 57.903C473.896 58.641 473.35 59.223 472.654 59.649C471.964 60.075 471.178 60.288 470.296 60.288C469.492 60.288 468.754 60.09 468.082 59.694C467.41 59.298 466.879 58.752 466.489 58.056V64.68H465.175ZM469.99 59.145C470.68 59.145 471.292 58.986 471.826 58.668C472.36 58.344 472.777 57.9 473.077 57.336C473.383 56.772 473.536 56.127 473.536 55.401C473.536 54.669 473.383 54.021 473.077 53.457C472.771 52.887 472.351 52.443 471.817 52.125C471.289 51.801 470.68 51.639 469.99 51.639C469.3 51.639 468.688 51.801 468.154 52.125C467.62 52.443 467.2 52.884 466.894 53.448C466.588 54.012 466.435 54.66 466.435 55.392C466.435 56.118 466.588 56.766 466.894 57.336C467.2 57.9 467.62 58.344 468.154 58.668C468.694 58.986 469.306 59.145 469.99 59.145ZM478.113 64.68V50.784H479.427V52.692C479.799 52.002 480.318 51.465 480.984 51.081C481.656 50.691 482.4 50.496 483.216 50.496C484.098 50.496 484.887 50.709 485.583 51.135C486.279 51.561 486.828 52.143 487.23 52.881C487.632 53.613 487.833 54.45 487.833 55.392C487.833 56.322 487.632 57.159 487.23 57.903C486.834 58.641 486.288 59.223 485.592 59.649C484.902 60.075 484.116 60.288 483.234 60.288C482.43 60.288 481.692 60.09 481.02 59.694C480.348 59.298 479.817 58.752 479.427 58.056V64.68H478.113ZM482.928 59.145C483.618 59.145 484.23 58.986 484.764 58.668C485.298 58.344 485.715 57.9 486.015 57.336C486.321 56.772 486.474 56.127 486.474 55.401C486.474 54.669 486.321 54.021 486.015 53.457C485.709 52.887 485.289 52.443 484.755 52.125C484.227 51.801 483.618 51.639 482.928 51.639C482.238 51.639 481.626 51.801 481.092 52.125C480.558 52.443 480.138 52.884 479.832 53.448C479.526 54.012 479.373 54.66 479.373 55.392C479.373 56.118 479.526 56.766 479.832 57.336C480.138 57.9 480.558 58.344 481.092 58.668C481.632 58.986 482.244 59.145 482.928 59.145ZM148.336 92.288C147.376 92.288 146.509 92.081 145.735 91.667C144.967 91.253 144.358 90.677 143.908 89.939C143.458 89.201 143.233 88.352 143.233 87.392C143.233 86.426 143.458 85.577 143.908 84.845C144.358 84.107 144.967 83.531 145.735 83.117C146.503 82.703 147.37 82.496 148.336 82.496C149.296 82.496 150.16 82.703 150.928 83.117C151.702 83.531 152.314 84.107 152.764 84.845C153.214 85.577 153.439 86.426 153.439 87.392C153.439 88.352 153.214 89.201 152.764 89.939C152.314 90.677 151.702 91.253 150.928 91.667C150.16 92.081 149.296 92.288 148.336 92.288ZM148.336 91.118C149.056 91.118 149.698 90.959 150.262 90.641C150.826 90.323 151.27 89.885 151.594 89.327C151.918 88.763 152.08 88.118 152.08 87.392C152.08 86.666 151.918 86.024 151.594 85.466C151.27 84.902 150.826 84.461 150.262 84.143C149.698 83.825 149.056 83.666 148.336 83.666C147.616 83.666 146.974 83.825 146.41 84.143C145.846 84.461 145.402 84.902 145.078 85.466C144.754 86.024 144.592 86.666 144.592 87.392C144.592 88.112 144.754 88.754 145.078 89.318C145.402 89.882 145.846 90.323 146.41 90.641C146.974 90.959 147.616 91.118 148.336 91.118ZM156.574 92V82.784H157.888V84.044C158.14 83.612 158.53 83.246 159.058 82.946C159.586 82.646 160.231 82.496 160.993 82.496C161.707 82.496 162.322 82.643 162.838 82.937C163.354 83.231 163.75 83.66 164.026 84.224C164.302 84.782 164.44 85.457 164.44 86.249V92H163.126V86.501C163.126 85.547 162.904 84.821 162.46 84.323C162.016 83.819 161.389 83.567 160.579 83.567C160.015 83.567 159.532 83.681 159.13 83.909C158.734 84.131 158.428 84.428 158.212 84.8C157.996 85.166 157.888 85.565 157.888 85.997V92H156.574ZM173.405 96.68L175.673 91.775L171.29 82.784H172.775L176.42 90.425L179.732 82.784H181.217L174.89 96.68H173.405ZM188.098 92.288C187.138 92.288 186.271 92.081 185.497 91.667C184.729 91.253 184.12 90.677 183.67 89.939C183.22 89.201 182.995 88.352 182.995 87.392C182.995 86.426 183.22 85.577 183.67 84.845C184.12 84.107 184.729 83.531 185.497 83.117C186.265 82.703 187.132 82.496 188.098 82.496C189.058 82.496 189.922 82.703 190.69 83.117C191.464 83.531 192.076 84.107 192.526 84.845C192.976 85.577 193.201 86.426 193.201 87.392C193.201 88.352 192.976 89.201 192.526 89.939C192.076 90.677 191.464 91.253 190.69 91.667C189.922 92.081 189.058 92.288 188.098 92.288ZM188.098 91.118C188.818 91.118 189.46 90.959 190.024 90.641C190.588 90.323 191.032 89.885 191.356 89.327C191.68 88.763 191.842 88.118 191.842 87.392C191.842 86.666 191.68 86.024 191.356 85.466C191.032 84.902 190.588 84.461 190.024 84.143C189.46 83.825 188.818 83.666 188.098 83.666C187.378 83.666 186.736 83.825 186.172 84.143C185.608 84.461 185.164 84.902 184.84 85.466C184.516 86.024 184.354 86.666 184.354 87.392C184.354 88.112 184.516 88.754 184.84 89.318C185.164 89.882 185.608 90.323 186.172 90.641C186.736 90.959 187.378 91.118 188.098 91.118ZM200.097 92.288C198.699 92.288 197.7 91.973 197.1 91.343C196.5 90.713 196.2 89.66 196.2 88.184V82.784H197.514V87.95C197.514 89.114 197.712 89.945 198.108 90.443C198.504 90.935 199.167 91.181 200.097 91.181C201.033 91.181 201.696 90.935 202.086 90.443C202.482 89.945 202.68 89.114 202.68 87.95V82.784H203.994V88.184C203.994 89.66 203.694 90.713 203.094 91.343C202.5 91.973 201.501 92.288 200.097 92.288ZM207.708 92V82.784H209.022V84.143C209.316 83.603 209.694 83.195 210.156 82.919C210.624 82.637 211.164 82.496 211.776 82.496C212.046 82.496 212.319 82.526 212.595 82.586C212.877 82.646 213.12 82.724 213.324 82.82L212.784 83.927C212.604 83.837 212.397 83.768 212.163 83.72C211.935 83.672 211.716 83.648 211.506 83.648C211.08 83.648 210.678 83.756 210.3 83.972C209.922 84.188 209.613 84.47 209.373 84.818C209.139 85.16 209.022 85.526 209.022 85.916V92H207.708ZM219.402 92L225.252 77.15H226.521L232.362 92H230.886L229.077 87.266H222.696L220.869 92H219.402ZM223.155 86.06H228.609L225.882 78.95L223.155 86.06ZM235.271 92V82.784H236.585V84.044C236.837 83.612 237.227 83.246 237.755 82.946C238.283 82.646 238.928 82.496 239.69 82.496C240.404 82.496 241.019 82.643 241.535 82.937C242.051 83.231 242.447 83.66 242.723 84.224C242.999 84.782 243.137 85.457 243.137 86.249V92H241.823V86.501C241.823 85.547 241.601 84.821 241.157 84.323C240.713 83.819 240.086 83.567 239.276 83.567C238.712 83.567 238.229 83.681 237.827 83.909C237.431 84.131 237.125 84.428 236.909 84.8C236.693 85.166 236.585 85.565 236.585 85.997V92H235.271ZM250.77 92.288C249.906 92.288 249.126 92.078 248.43 91.658C247.74 91.238 247.191 90.659 246.783 89.921C246.381 89.183 246.18 88.34 246.18 87.392C246.18 86.45 246.381 85.613 246.783 84.881C247.185 84.143 247.731 83.561 248.421 83.135C249.117 82.709 249.906 82.496 250.788 82.496C251.61 82.496 252.354 82.691 253.02 83.081C253.686 83.471 254.208 84.011 254.586 84.701V76.511H255.9V92H254.586V90.056C254.196 90.752 253.665 91.298 252.993 91.694C252.327 92.09 251.586 92.288 250.77 92.288ZM251.085 91.145C251.775 91.145 252.387 90.986 252.921 90.668C253.455 90.344 253.875 89.9 254.181 89.336C254.487 88.766 254.64 88.121 254.64 87.401C254.64 86.669 254.487 86.021 254.181 85.457C253.881 84.887 253.461 84.443 252.921 84.125C252.387 83.801 251.775 83.639 251.085 83.639C250.401 83.639 249.792 83.801 249.258 84.125C248.724 84.443 248.304 84.887 247.998 85.457C247.692 86.021 247.539 86.669 247.539 87.401C247.539 88.127 247.689 88.772 247.989 89.336C248.295 89.9 248.715 90.344 249.249 90.668C249.789 90.986 250.401 91.145 251.085 91.145ZM259.775 92V82.784H261.089V84.143C261.383 83.603 261.761 83.195 262.223 82.919C262.691 82.637 263.231 82.496 263.843 82.496C264.113 82.496 264.386 82.526 264.662 82.586C264.944 82.646 265.187 82.724 265.391 82.82L264.851 83.927C264.671 83.837 264.464 83.768 264.23 83.72C264.002 83.672 263.783 83.648 263.573 83.648C263.147 83.648 262.745 83.756 262.367 83.972C261.989 84.188 261.68 84.47 261.44 84.818C261.206 85.16 261.089 85.526 261.089 85.916V92H259.775ZM272.104 92.288C271.144 92.288 270.277 92.081 269.503 91.667C268.735 91.253 268.126 90.677 267.676 89.939C267.226 89.201 267.001 88.352 267.001 87.392C267.001 86.426 267.226 85.577 267.676 84.845C268.126 84.107 268.735 83.531 269.503 83.117C270.271 82.703 271.138 82.496 272.104 82.496C273.064 82.496 273.928 82.703 274.696 83.117C275.47 83.531 276.082 84.107 276.532 84.845C276.982 85.577 277.207 86.426 277.207 87.392C277.207 88.352 276.982 89.201 276.532 89.939C276.082 90.677 275.47 91.253 274.696 91.667C273.928 92.081 273.064 92.288 272.104 92.288ZM272.104 91.118C272.824 91.118 273.466 90.959 274.03 90.641C274.594 90.323 275.038 89.885 275.362 89.327C275.686 88.763 275.848 88.118 275.848 87.392C275.848 86.666 275.686 86.024 275.362 85.466C275.038 84.902 274.594 84.461 274.03 84.143C273.466 83.825 272.824 83.666 272.104 83.666C271.384 83.666 270.742 83.825 270.178 84.143C269.614 84.461 269.17 84.902 268.846 85.466C268.522 86.024 268.36 86.666 268.36 87.392C268.36 88.112 268.522 88.754 268.846 89.318C269.17 89.882 269.614 90.323 270.178 90.641C270.742 90.959 271.384 91.118 272.104 91.118ZM280.332 92V82.784H281.646V92H280.332ZM280.998 80.939C280.836 80.939 280.689 80.9 280.557 80.822C280.431 80.744 280.329 80.639 280.251 80.507C280.173 80.375 280.134 80.231 280.134 80.075C280.134 79.919 280.173 79.778 280.251 79.652C280.329 79.52 280.431 79.415 280.557 79.337C280.689 79.259 280.836 79.22 280.998 79.22C281.154 79.22 281.295 79.259 281.421 79.337C281.547 79.415 281.649 79.517 281.727 79.643C281.811 79.769 281.853 79.913 281.853 80.075C281.853 80.231 281.811 80.375 281.727 80.507C281.649 80.639 281.547 80.744 281.421 80.822C281.295 80.9 281.154 80.939 280.998 80.939ZM289.46 92.288C288.596 92.288 287.816 92.078 287.12 91.658C286.43 91.238 285.881 90.659 285.473 89.921C285.071 89.183 284.87 88.34 284.87 87.392C284.87 86.45 285.071 85.613 285.473 84.881C285.875 84.143 286.421 83.561 287.111 83.135C287.807 82.709 288.596 82.496 289.478 82.496C290.3 82.496 291.044 82.691 291.71 83.081C292.376 83.471 292.898 84.011 293.276 84.701V76.511H294.59V92H293.276V90.056C292.886 90.752 292.355 91.298 291.683 91.694C291.017 92.09 290.276 92.288 289.46 92.288ZM289.775 91.145C290.465 91.145 291.077 90.986 291.611 90.668C292.145 90.344 292.565 89.9 292.871 89.336C293.177 88.766 293.33 88.121 293.33 87.401C293.33 86.669 293.177 86.021 292.871 85.457C292.571 84.887 292.151 84.443 291.611 84.125C291.077 83.801 290.465 83.639 289.775 83.639C289.091 83.639 288.482 83.801 287.948 84.125C287.414 84.443 286.994 84.887 286.688 85.457C286.382 86.021 286.229 86.669 286.229 87.401C286.229 88.127 286.379 88.772 286.679 89.336C286.985 89.9 287.405 90.344 287.939 90.668C288.479 90.986 289.091 91.145 289.775 91.145ZM307.488 92.288C306.528 92.288 305.661 92.081 304.887 91.667C304.119 91.253 303.51 90.677 303.06 89.939C302.61 89.201 302.385 88.352 302.385 87.392C302.385 86.426 302.61 85.577 303.06 84.845C303.51 84.107 304.119 83.531 304.887 83.117C305.655 82.703 306.522 82.496 307.488 82.496C308.448 82.496 309.312 82.703 310.08 83.117C310.854 83.531 311.466 84.107 311.916 84.845C312.366 85.577 312.591 86.426 312.591 87.392C312.591 88.352 312.366 89.201 311.916 89.939C311.466 90.677 310.854 91.253 310.08 91.667C309.312 92.081 308.448 92.288 307.488 92.288ZM307.488 91.118C308.208 91.118 308.85 90.959 309.414 90.641C309.978 90.323 310.422 89.885 310.746 89.327C311.07 88.763 311.232 88.118 311.232 87.392C311.232 86.666 311.07 86.024 310.746 85.466C310.422 84.902 309.978 84.461 309.414 84.143C308.85 83.825 308.208 83.666 307.488 83.666C306.768 83.666 306.126 83.825 305.562 84.143C304.998 84.461 304.554 84.902 304.23 85.466C303.906 86.024 303.744 86.666 303.744 87.392C303.744 88.112 303.906 88.754 304.23 89.318C304.554 89.882 304.998 90.323 305.562 90.641C306.126 90.959 306.768 91.118 307.488 91.118ZM315.726 92V82.784H317.04V84.143C317.334 83.603 317.712 83.195 318.174 82.919C318.642 82.637 319.182 82.496 319.794 82.496C320.064 82.496 320.337 82.526 320.613 82.586C320.895 82.646 321.138 82.724 321.342 82.82L320.802 83.927C320.622 83.837 320.415 83.768 320.181 83.72C319.953 83.672 319.734 83.648 319.524 83.648C319.098 83.648 318.696 83.756 318.318 83.972C317.94 84.188 317.631 84.47 317.391 84.818C317.157 85.16 317.04 85.526 317.04 85.916V92H315.726ZM328.868 92V77.15H330.236V92H328.868ZM341.652 92.288C340.614 92.288 339.642 92.09 338.736 91.694C337.83 91.298 337.035 90.749 336.351 90.047C335.667 89.339 335.13 88.52 334.74 87.59C334.356 86.654 334.164 85.652 334.164 84.584C334.164 83.51 334.356 82.508 334.74 81.578C335.13 80.648 335.667 79.832 336.351 79.13C337.035 78.422 337.83 77.87 338.736 77.474C339.642 77.078 340.614 76.88 341.652 76.88C342.69 76.88 343.662 77.078 344.568 77.474C345.474 77.87 346.269 78.422 346.953 79.13C347.637 79.832 348.171 80.648 348.555 81.578C348.945 82.508 349.14 83.51 349.14 84.584C349.14 85.652 348.945 86.654 348.555 87.59C348.171 88.52 347.637 89.339 346.953 90.047C346.269 90.749 345.474 91.298 344.568 91.694C343.662 92.09 342.69 92.288 341.652 92.288ZM341.652 90.965C342.498 90.965 343.284 90.803 344.01 90.479C344.736 90.155 345.372 89.702 345.918 89.12C346.47 88.538 346.899 87.86 347.205 87.086C347.511 86.312 347.664 85.478 347.664 84.584C347.664 83.69 347.511 82.856 347.205 82.082C346.899 81.308 346.47 80.63 345.918 80.048C345.372 79.466 344.736 79.013 344.01 78.689C343.284 78.365 342.498 78.203 341.652 78.203C340.806 78.203 340.017 78.365 339.285 78.689C338.559 79.013 337.923 79.466 337.377 80.048C336.831 80.63 336.402 81.308 336.09 82.082C335.784 82.856 335.631 83.69 335.631 84.584C335.631 85.478 335.784 86.312 336.09 87.086C336.402 87.86 336.831 88.538 337.377 89.12C337.923 89.702 338.559 90.155 339.285 90.479C340.017 90.803 340.806 90.965 341.652 90.965ZM356.781 92.288C356.013 92.288 355.338 92.174 354.756 91.946C354.174 91.712 353.679 91.433 353.271 91.109C352.869 90.779 352.545 90.458 352.299 90.146C352.059 89.834 351.891 89.6 351.795 89.444L352.578 88.436C352.686 88.604 352.848 88.832 353.064 89.12C353.286 89.402 353.568 89.69 353.91 89.984C354.252 90.272 354.663 90.518 355.143 90.722C355.623 90.92 356.178 91.019 356.808 91.019C357.408 91.019 357.954 90.911 358.446 90.695C358.944 90.479 359.343 90.158 359.643 89.732C359.943 89.306 360.093 88.778 360.093 88.148C360.093 87.62 359.988 87.173 359.778 86.807C359.574 86.435 359.289 86.12 358.923 85.862C358.557 85.604 358.137 85.376 357.663 85.178C357.195 84.974 356.703 84.776 356.187 84.584C355.827 84.446 355.449 84.284 355.053 84.098C354.663 83.906 354.297 83.669 353.955 83.387C353.613 83.099 353.334 82.751 353.118 82.343C352.908 81.935 352.803 81.443 352.803 80.867C352.803 80.327 352.905 79.817 353.109 79.337C353.313 78.857 353.598 78.434 353.964 78.068C354.33 77.696 354.768 77.405 355.278 77.195C355.788 76.985 356.352 76.88 356.97 76.88C357.564 76.88 358.11 76.979 358.608 77.177C359.106 77.369 359.541 77.615 359.913 77.915C360.291 78.209 360.582 78.515 360.786 78.833L360.084 79.778C359.916 79.502 359.682 79.238 359.382 78.986C359.082 78.734 358.728 78.53 358.32 78.374C357.918 78.212 357.471 78.131 356.979 78.131C356.367 78.131 355.845 78.263 355.413 78.527C354.987 78.791 354.663 79.133 354.441 79.553C354.219 79.967 354.108 80.405 354.108 80.867C354.108 81.287 354.195 81.644 354.369 81.938C354.543 82.232 354.774 82.481 355.062 82.685C355.35 82.883 355.665 83.054 356.007 83.198C356.355 83.342 356.703 83.477 357.051 83.603C357.633 83.819 358.191 84.05 358.725 84.296C359.265 84.536 359.745 84.824 360.165 85.16C360.585 85.49 360.918 85.895 361.164 86.375C361.41 86.849 361.533 87.425 361.533 88.103C361.533 88.991 361.323 89.747 360.903 90.371C360.483 90.995 359.916 91.472 359.202 91.802C358.488 92.126 357.681 92.288 356.781 92.288Z" fill="white"/>
</svg>
